<svg xmlns="http://www.w3.org/2000/svg" width="128" height="128" viewBox="0 0 128 128" fill="none">
  <defs>
    <linearGradient id="diamond" x1="24" y1="16" x2="104" y2="112" gradientUnits="userSpaceOnUse">
      <stop stop-color="#D4FFF8"/>
      <stop offset="1" stop-color="#79E9F2"/>
    </linearGradient>
    <linearGradient id="ribbonA" x1="12" y1="58" x2="116" y2="58" gradientUnits="userSpaceOnUse">
      <stop stop-color="#82F4F0"/>
      <stop offset="0.4" stop-color="#3557FF"/>
      <stop offset="1" stop-color="#82F4F0"/>
    </linearGradient>
    <linearGradient id="ribbonB" x1="18" y1="68" x2="110" y2="30" gradientUnits="userSpaceOnUse">
      <stop stop-color="#A7FFF9"/>
      <stop offset="0.45" stop-color="#5C63FF"/>
      <stop offset="1" stop-color="#9EF7FF"/>
    </linearGradient>
  </defs>
  <path d="M64 8 112 44 64 120 16 44 64 8Z" fill="url(#diamond)" opacity="0.95"/>
  <path d="M18 58c14-27 35-40 51-40 18 0 33 12 59 44-12 24-29 36-47 36-17 0-31-12-63-40Z" fill="url(#ribbonA)"/>
  <path d="M110 62C96 89 76 104 58 104 40 104 24 91 12 70c13-24 30-36 48-36 18 0 33 12 50 28Z" fill="url(#ribbonB)"/>
  <path d="M37 36c14 4 27 12 43 26" stroke="#C7FFFB" stroke-width="3.2" stroke-linecap="round" opacity="0.7"/>
</svg>
